<svg viewBox="0 0 497 411" fill="none" xmlns="http://www.w3.org/2000/svg">
<path d="M37.82 71.84L111.58 101.34L121.21 83.95L75.42 26.21C61.16 39.85 48.52 55.16 37.82 71.84Z" fill="#CA5516"/>
<path d="M318.1 120.36L372.33 61.96C350.31 44.68 323.75 32.7 294.31 27.61L286.77 105.51L318.1 120.36Z" fill="#5C685B"/>
<path d="M303.42 330.54L310.66 410.22C330.02 405.4 347.94 397.52 363.91 387.09L312.15 324.64L303.42 330.54Z" fill="#F29100"/>
<path d="M331.89 139.37L371.66 81.92C367.31 77.67 362.72 73.68 357.92 69.92L306.85 124.92L331.89 139.37Z" fill="#434F43"/>
<path d="M343.17 145.88L400.84 120.03C392.93 105.91 383.12 93.1 371.67 81.92L331.9 139.37L343.17 145.88Z" fill="#96A498"/>
<path d="M277.85 108.16L283.88 45.91C280.13 45.26 276.35 44.71 272.5 44.33L261.02 98.44L277.85 108.16Z" fill="#96A498"/>
<path d="M224.51 103.74L203.12 51.25C195.73 53.06 188.58 55.35 181.63 58.02L200.95 117.35L224.51 103.74Z" fill="#434F43"/>
<path d="M204.76 115.15L178.57 34.73C160.76 41.57 144.34 50.85 129.67 62.2L192.19 122.41L204.76 115.15Z" fill="#5C685B"/>
<path d="M185.23 126.42L148.81 91.35C143.8 95.23 139.1 99.46 134.73 104.02L162.77 139.38L185.23 126.42Z" fill="#F29100"/>
<path d="M147.41 263.66V257.39L84.21 271.83C90.25 287.39 98.42 301.74 108.42 314.57L162.29 272.24L147.41 263.66Z" fill="#434F43"/>
<path d="M162.3 272.25L108.43 314.58C122.15 332.2 139.28 346.95 158.99 358.02L190.7 288.65L162.3 272.25Z" fill="#CA5516"/>
<path d="M190.7 288.65L158.99 358.02C163.51 360.56 168.15 362.9 172.93 365.04L194.18 290.66L190.7 288.65Z" fill="#96A498"/>
<path d="M194.17 290.66L172.92 365.04C174.51 365.75 176.1 366.47 177.72 367.13L220.13 305.64L194.17 290.66Z" fill="#5C685B"/>
<path d="M220.13 305.65L177.72 367.14C195.31 374.39 214.49 378.89 234.78 380.24L235.89 314.75L220.13 305.65Z" fill="#434F43"/>
<path d="M247.35 321.36L235.89 314.74L234.78 380.23C239.02 380.51 243.29 380.71 247.62 380.71C252.58 380.71 257.46 380.47 262.3 380.1L268.2 309.33L247.35 321.36Z" fill="#5C685B"/>
<path d="M268.19 309.33L262.29 380.1C272.78 379.3 282.98 377.68 292.8 375.24L285.88 299.11L268.19 309.33Z" fill="#96A498"/>
<path d="M325.53 276.23L296.43 293.03L346.06 352.11C352.42 347.96 358.44 343.37 364.15 338.44L325.53 276.23Z" fill="#434F43"/>
<path d="M345.19 264.88L325.53 276.23L364.14 338.44C380.65 324.17 394.27 306.77 404.25 287.02L345.19 264.88Z" fill="#5C685B"/>
<path d="M249.8 75.29L267.96 1.38C261.67 0.750005 255.26 0.420013 248.76 0.420013C233.18 0.420013 218.16 2.26 203.9 5.75L237.39 82.23L249.8 75.29Z" fill="#CA5516"/>
<path d="M347.29 166.12H418.49C414.75 149.64 408.76 134.18 400.83 120.02L343.16 145.87L347.29 148.25V166.12Z" fill="#5C685B"/>
<path d="M356.14 245.43L410.4 273.43C413.98 264.48 416.82 255.12 418.91 245.43H356.14Z" fill="#434F43"/>
<path d="M18.01 217.9V233.71C16.55 234.06 15.05 234.29 13.51 234.39C11.98 234.49 10.55 234.55 9.21997 234.55C7.81997 234.55 6.38 234.5 4.88 234.39C3.38 234.29 1.86002 234.06 0.330017 233.71V177.8H40.28C40.63 179.2 40.86 180.48 40.96 181.67C41.06 182.86 41.12 184.01 41.12 185.12C41.12 186.24 41.07 187.4 40.96 188.62C40.86 189.84 40.63 191.15 40.28 192.54H18.01V203.15H36C36.35 204.55 36.58 205.83 36.68 207.02C36.78 208.21 36.84 209.36 36.84 210.47C36.84 211.59 36.79 212.75 36.68 213.97C36.58 215.19 36.35 216.5 36 217.89L18.01 217.9Z" fill="#5C685B"/>
<path d="M97.11 215.6C97.11 212.19 97.84 209.36 99.31 207.13C100.77 204.9 102.66 203.12 104.96 201.8C107.26 200.48 109.8 199.55 112.59 199.03C115.38 198.51 118.1 198.25 120.75 198.25H127.13C127.06 197 126.71 195.95 126.08 195.11C125.45 194.27 124.65 193.63 123.67 193.18C122.69 192.73 121.61 192.41 120.43 192.24C119.24 192.07 118.03 191.98 116.77 191.98C115.1 191.98 113.14 192.17 110.91 192.56C108.68 192.94 106.38 193.55 104.01 194.39C103.38 193.21 102.84 192.13 102.39 191.15C101.94 190.18 101.59 189.18 101.34 188.17C101.1 187.16 100.92 186.11 100.82 185.03C100.72 183.95 100.66 182.71 100.66 181.32C104.01 180.21 107.33 179.37 110.65 178.81C113.96 178.25 116.94 177.97 119.59 177.97C123.21 177.97 126.49 178.41 129.42 179.28C132.35 180.15 134.84 181.49 136.9 183.31C138.96 185.12 140.54 187.44 141.66 190.26C142.77 193.08 143.33 196.45 143.33 200.35V230.99C140.68 231.76 137.47 232.52 133.71 233.29C129.95 234.06 125.97 234.44 121.79 234.44C118.16 234.44 114.84 234.11 111.8 233.45C108.77 232.79 106.17 231.72 104.01 230.26C101.85 228.8 100.16 226.86 98.94 224.46C97.72 222.03 97.11 219.09 97.11 215.6ZM121.79 221.46C122.42 221.46 123.32 221.39 124.51 221.25C125.69 221.11 126.57 220.97 127.12 220.83V209.33H121.16C118.72 209.33 116.66 209.85 114.99 210.9C113.32 211.95 112.48 213.41 112.48 215.29C112.48 216.69 112.79 217.78 113.42 218.58C114.05 219.38 114.83 219.99 115.77 220.41C116.71 220.83 117.72 221.11 118.8 221.25C119.89 221.39 120.88 221.46 121.79 221.46Z" fill="#5C685B"/>
<path d="M176.76 234.53C171.74 234.53 167.47 233.78 163.95 232.28C160.43 230.78 157.55 228.74 155.32 226.16C153.09 223.58 151.47 220.55 150.46 217.06C149.45 213.57 148.94 209.84 148.94 205.87C148.94 202.04 149.55 198.41 150.77 194.99C151.99 191.58 153.8 188.61 156.21 186.1C158.61 183.59 161.6 181.6 165.15 180.14C168.71 178.68 172.82 177.94 177.49 177.94C179.93 177.94 182.61 178.22 185.54 178.78C188.47 179.34 191.67 180.31 195.16 181.71C195.09 182.9 194.95 184.01 194.74 185.06C194.53 186.11 194.27 187.17 193.96 188.25C193.65 189.33 193.26 190.48 192.81 191.7C192.36 192.92 191.82 194.3 191.19 195.83C188.82 194.85 186.62 194.14 184.6 193.69C182.58 193.24 180.83 193.01 179.37 193.01C177.07 193.01 175.12 193.36 173.51 194.06C171.91 194.76 170.62 195.7 169.64 196.88C168.66 198.07 167.95 199.44 167.5 201.01C167.05 202.58 166.82 204.2 166.82 205.87C166.82 210.54 167.83 213.97 169.85 216.17C171.87 218.37 174.83 219.46 178.74 219.46H180.62V204.09C182.36 203.74 183.91 203.5 185.27 203.36C186.63 203.22 187.94 203.15 189.19 203.15C191.63 203.15 194.52 203.46 197.87 204.09V230.65C195.85 231.42 193.02 232.25 189.4 233.16C185.79 234.07 181.57 234.53 176.76 234.53Z" fill="#5C685B"/>
<path d="M227.13 177.8C229.99 177.8 232.81 178.03 235.6 178.48C238.39 178.93 240.97 179.86 243.34 181.25C245.15 180.34 247.28 179.54 249.72 178.84C252.16 178.14 254.91 177.79 257.98 177.79C260.7 177.79 263.5 178.05 266.4 178.57C269.29 179.09 271.91 180.19 274.24 181.86C276.57 183.53 278.49 185.94 279.99 189.07C281.49 192.21 282.24 196.36 282.24 201.51V233.65C280.43 234 278.79 234.23 277.33 234.33C275.87 234.43 274.58 234.49 273.46 234.49C272.27 234.49 270.95 234.44 269.49 234.33C268.03 234.23 266.39 234 264.58 233.65V203.39C264.58 199.7 263.95 197.05 262.7 195.44C261.44 193.84 259.39 193.03 256.53 193.03C255.55 193.03 254.6 193.13 253.65 193.34C252.71 193.55 252.06 193.72 251.72 193.86C252.35 196.3 252.66 199.09 252.66 202.22V233.63C250.85 233.98 249.21 234.21 247.75 234.31C246.29 234.41 245 234.47 243.88 234.47C242.69 234.47 241.37 234.42 239.91 234.31C238.45 234.2 236.81 233.98 235 233.63V203.37C235 199.68 234.41 197.03 233.22 195.42C232.03 193.82 230.01 193.01 227.15 193.01C226.38 193.01 225.56 193.08 224.69 193.22C223.82 193.36 223.28 193.5 223.07 193.64V233.62C221.26 233.97 219.62 234.2 218.16 234.3C216.7 234.4 215.41 234.46 214.29 234.46C213.1 234.46 211.78 234.41 210.32 234.3C208.86 234.2 207.22 233.97 205.41 233.62V181.46C207.85 180.62 210.78 179.81 214.19 179C217.58 178.2 221.9 177.8 227.13 177.8Z" fill="#5C685B"/>
<path d="M306.19 211.84C306.96 214.7 308.3 216.72 310.22 217.91C312.14 219.1 314.66 219.69 317.8 219.69C319.82 219.69 322.09 219.45 324.6 218.96C327.11 218.47 329.58 217.74 332.02 216.76C333 218.57 333.85 220.73 334.58 223.24C335.31 225.75 335.71 228.36 335.78 231.08C329.57 233.38 323.23 234.53 316.75 234.53C311.73 234.53 307.43 233.83 303.84 232.44C300.25 231.05 297.32 229.11 295.06 226.64C292.79 224.17 291.12 221.22 290.04 217.8C288.96 214.39 288.42 210.66 288.42 206.61C288.42 202.64 288.98 198.91 290.09 195.42C291.2 191.93 292.88 188.9 295.11 186.32C297.34 183.74 300.13 181.7 303.47 180.2C306.82 178.7 310.72 177.95 315.18 177.95C318.87 177.95 322.17 178.58 325.06 179.83C327.95 181.09 330.41 182.81 332.43 185.01C334.45 187.21 336 189.86 337.08 192.96C338.16 196.06 338.7 199.43 338.7 203.05C338.7 204.93 338.61 206.62 338.44 208.12C338.27 209.62 338.11 210.86 337.97 211.83L306.19 211.84ZM314.56 191.24C312.33 191.24 310.41 191.94 308.81 193.33C307.2 194.73 306.26 196.89 305.99 199.81H322.72C322.58 197.37 321.83 195.33 320.47 193.69C319.11 192.06 317.14 191.24 314.56 191.24Z" fill="#5C685B"/>
<path d="M367.59 177.86C370.66 177.86 373.72 178.12 376.79 178.64C379.86 179.16 382.63 180.26 385.1 181.93C387.57 183.6 389.6 186.01 391.17 189.14C392.74 192.28 393.52 196.43 393.52 201.58V233.72C391.71 234.07 390.07 234.3 388.61 234.4C387.15 234.5 385.86 234.56 384.74 234.56C383.55 234.56 382.23 234.51 380.77 234.4C379.31 234.3 377.67 234.07 375.86 233.72V203.46C375.86 199.77 375.16 197.12 373.77 195.51C372.37 193.91 370.25 193.1 367.39 193.1C366.62 193.1 365.8 193.17 364.93 193.31C364.06 193.45 363.52 193.59 363.31 193.73V233.71C361.5 234.06 359.86 234.29 358.4 234.39C356.94 234.49 355.65 234.55 354.53 234.55C353.34 234.55 352.02 234.5 350.56 234.39C349.1 234.29 347.46 234.06 345.65 233.71V181.49C348.09 180.65 351.05 179.84 354.54 179.03C358 178.26 362.36 177.86 367.59 177.86Z" fill="#5C685B"/>
<path d="M415.24 192.59H399.76C399.41 191.2 399.18 189.89 399.08 188.67C398.98 187.45 398.92 186.28 398.92 185.17C398.92 184.06 398.97 182.91 399.08 181.72C399.18 180.54 399.41 179.25 399.76 177.85H448.38C448.73 179.25 448.96 180.53 449.06 181.72C449.16 182.91 449.22 184.06 449.22 185.17C449.22 186.29 449.17 187.45 449.06 188.67C448.96 189.89 448.73 191.2 448.38 192.59H432.9V233.74C431.09 234.02 429.45 234.23 427.99 234.37C426.53 234.51 425.2 234.58 424.02 234.58C422.83 234.58 421.51 234.51 420.05 234.37C418.59 234.23 416.98 234.02 415.24 233.74V192.59Z" fill="#5C685B"/>
<path d="M482.44 199.39C484.53 199.95 486.43 200.63 488.14 201.43C489.85 202.23 491.31 203.26 492.53 204.52C493.75 205.77 494.71 207.31 495.41 209.12C496.11 210.93 496.46 213.13 496.46 215.71C496.46 218.36 495.92 220.83 494.84 223.13C493.76 225.43 492.16 227.42 490.03 229.09C487.9 230.76 485.29 232.09 482.19 233.06C479.09 234.04 475.51 234.52 471.47 234.52C468.12 234.52 465.02 234.27 462.16 233.79C459.3 233.3 456.27 232.47 453.06 231.28C453.41 226.54 454.7 221.73 456.93 216.85C459.16 217.9 461.5 218.68 463.94 219.2C466.38 219.72 468.82 219.98 471.26 219.98C472.1 219.98 472.97 219.95 473.87 219.88C474.78 219.81 475.58 219.65 476.28 219.41C476.98 219.17 477.55 218.83 478.01 218.42C478.46 218 478.69 217.45 478.69 216.75C478.69 215.84 478.24 215.17 477.33 214.71C476.42 214.26 475.38 213.86 474.19 213.51L467.08 211.52C463.38 210.47 460.32 208.7 457.88 206.19C455.44 203.68 454.22 200.27 454.22 195.94C454.22 193.22 454.78 190.75 455.89 188.52C457 186.29 458.57 184.39 460.6 182.82C462.62 181.25 465.01 180.05 467.76 179.21C470.51 178.37 473.56 177.96 476.91 177.96C479.56 177.96 482.45 178.24 485.59 178.8C488.73 179.36 491.83 180.16 494.9 181.21C494.76 183.44 494.31 185.83 493.54 188.37C492.77 190.92 491.9 193.16 490.93 195.12C489.05 194.35 486.78 193.66 484.13 193.03C481.48 192.4 479.04 192.09 476.81 192.09C473.53 192.09 471.9 193 471.9 194.81C471.9 195.58 472.28 196.17 473.05 196.59C473.82 197.01 474.69 197.36 475.66 197.64L482.44 199.39Z" fill="#5C685B"/>
<path d="M46.23 179.42C49.51 179 52.9 178.65 56.43 178.37C59.95 178.09 63.28 177.95 66.42 177.95C74.85 177.95 81.18 179.54 85.4 182.71C89.62 185.88 91.73 190.33 91.73 196.04C91.73 198.2 91.48 200.08 91 201.69C90.51 203.29 89.92 204.67 89.22 205.82C88.52 206.97 87.79 207.9 87.02 208.59C86.25 209.29 85.63 209.85 85.14 210.26L97.42 233.75C96.02 234.03 94.47 234.24 92.77 234.38C91.06 234.52 89.41 234.59 87.8 234.59C85.85 234.59 83.96 234.52 82.15 234.38C80.34 234.24 78.84 234.03 77.65 233.75L65.69 208.38L67.15 207.54C69.59 206.15 71.26 204.66 72.17 203.1C73.08 201.53 73.53 199.84 73.53 198.03C73.53 196.22 72.99 194.74 71.91 193.59C70.83 192.44 69.1 191.86 66.73 191.86C65.4 191.86 64.39 191.93 63.7 192.07V233.71C61.89 234.06 60.25 234.29 58.79 234.39C57.33 234.49 56.04 234.55 54.92 234.55C53.73 234.55 52.44 234.5 51.05 234.39C49.66 234.29 48.05 234.06 46.24 233.71V179.42H46.23Z" fill="#5C685B"/>
<path d="M204.98 265.01H201.09L200.58 271.57C200.06 271.68 199.59 271.74 199.19 271.77C198.78 271.8 198.36 271.81 197.91 271.81C197.52 271.81 197.11 271.8 196.69 271.77C196.27 271.74 195.8 271.68 195.28 271.57L195.83 265.01H191.71C191.66 264.59 191.61 264.2 191.57 263.83C191.53 263.46 191.51 263.1 191.51 262.73C191.51 262.34 191.53 261.95 191.57 261.57C191.61 261.19 191.65 260.79 191.71 260.37H196.22L196.57 256.05H192.45C192.29 255.24 192.21 254.47 192.21 253.73C192.21 253.34 192.23 252.96 192.27 252.59C192.31 252.22 192.37 251.83 192.45 251.41H196.96L197.43 245.76C197.95 245.66 198.42 245.59 198.82 245.56C199.23 245.53 199.65 245.52 200.1 245.52C200.52 245.52 200.94 245.53 201.36 245.56C201.78 245.59 202.22 245.65 202.7 245.76L202.23 251.41H206.12L206.59 245.76C207.11 245.66 207.58 245.59 207.98 245.56C208.39 245.53 208.8 245.52 209.22 245.52C209.64 245.52 210.06 245.53 210.48 245.56C210.9 245.59 211.36 245.65 211.85 245.76L211.38 251.41H215.19C215.27 251.83 215.33 252.21 215.37 252.57C215.41 252.92 215.43 253.28 215.43 253.65C215.43 254.43 215.35 255.23 215.19 256.04H210.99L210.64 260.36H214.49C214.54 260.78 214.59 261.17 214.63 261.54C214.67 261.91 214.69 262.27 214.69 262.64C214.69 263.01 214.67 263.39 214.63 263.78C214.59 264.17 214.54 264.58 214.49 265H210.25L209.74 271.56C209.24 271.67 208.78 271.73 208.37 271.76C207.95 271.79 207.53 271.8 207.11 271.8C206.66 271.8 206.23 271.79 205.81 271.76C205.39 271.73 204.95 271.67 204.48 271.56L204.98 265.01ZM201.49 260.38H205.38L205.73 256.06H201.84L201.49 260.38Z" fill="#F29100"/>
<path d="M218.16 245.72C218.81 245.62 219.4 245.55 219.93 245.5C220.46 245.45 220.93 245.43 221.34 245.43C221.77 245.43 222.26 245.45 222.8 245.5C223.34 245.55 223.92 245.62 224.55 245.72V271.45C223.28 271.67 222.22 271.77 221.38 271.77C220.49 271.77 219.42 271.66 218.17 271.45V245.72H218.16ZM232.07 258.15L238.81 271.45C238.4 271.55 237.85 271.62 237.17 271.68C236.49 271.74 235.87 271.77 235.31 271.77C234.61 271.77 233.94 271.74 233.29 271.68C232.64 271.62 232.09 271.54 231.63 271.45L225.04 258.48L231.13 245.73C231.85 245.61 232.47 245.53 233 245.5C233.53 245.46 234.07 245.45 234.62 245.45C234.88 245.45 235.18 245.46 235.52 245.47C235.86 245.48 236.19 245.51 236.51 245.54C236.83 245.57 237.15 245.61 237.45 245.65C237.75 245.69 238.01 245.72 238.23 245.74L232.07 258.15Z" fill="#F29100"/>
<path d="M256.66 271.77C255.77 271.77 254.7 271.66 253.45 271.45V260.93H247.07V271.45C245.8 271.67 244.74 271.77 243.9 271.77C243.01 271.77 241.94 271.66 240.69 271.45V245.72C241.34 245.62 241.93 245.55 242.46 245.5C242.99 245.45 243.46 245.43 243.87 245.43C244.3 245.43 244.79 245.45 245.33 245.5C245.87 245.55 246.45 245.62 247.08 245.72V255.27H253.46V245.72C254.11 245.62 254.69 245.55 255.21 245.5C255.73 245.45 256.2 245.43 256.63 245.43C257.06 245.43 257.55 245.45 258.09 245.5C258.63 245.55 259.21 245.62 259.84 245.72V271.45C258.56 271.66 257.5 271.77 256.66 271.77Z" fill="#F29100"/>
<path d="M277.9 245.44C278.12 246.47 278.23 247.36 278.23 248.12C278.23 248.98 278.12 249.92 277.9 250.95H270.15L270.08 254.77C270.3 254.72 270.51 254.7 270.7 254.7C270.9 254.7 271.13 254.7 271.4 254.7C272.6 254.7 273.7 254.87 274.7 255.21C275.7 255.55 276.56 256.05 277.27 256.72C277.98 257.38 278.53 258.2 278.92 259.18C279.31 260.16 279.51 261.29 279.51 262.56C279.51 264.08 279.25 265.41 278.74 266.56C278.23 267.71 277.49 268.68 276.52 269.46C275.55 270.24 274.38 270.83 273.01 271.22C271.64 271.61 270.11 271.81 268.42 271.81C268.1 271.81 267.7 271.79 267.23 271.74C266.75 271.69 266.22 271.62 265.63 271.54C265.04 271.45 264.42 271.33 263.78 271.17C263.13 271.01 262.5 270.82 261.89 270.6C261.91 270.13 261.98 269.65 262.09 269.15C262.2 268.65 262.33 268.16 262.48 267.68C262.63 267.2 262.78 266.75 262.94 266.32C263.1 265.89 263.26 265.51 263.44 265.16C264.4 265.5 265.26 265.77 266.05 265.95C266.83 266.13 267.59 266.23 268.33 266.23C269.21 266.23 269.96 266.13 270.57 265.94C271.18 265.74 271.67 265.49 272.04 265.19C272.41 264.88 272.67 264.53 272.83 264.13C272.99 263.73 273.07 263.3 273.07 262.86C273.07 261.93 272.74 261.18 272.08 260.62C271.42 260.06 270.37 259.78 268.92 259.78C268.33 259.78 267.7 259.85 267.03 259.98C266.36 260.11 265.65 260.35 264.92 260.7L263.97 260.08L264.52 245.47H277.9V245.44Z" fill="#F29100"/>
<path d="M281.36 258.74C281.36 256.85 281.58 255.09 282.02 253.47C282.46 251.85 283.13 250.45 284.04 249.27C284.95 248.09 286.11 247.16 287.51 246.49C288.92 245.82 290.59 245.48 292.53 245.48C294.47 245.48 296.13 245.82 297.53 246.49C298.92 247.16 300.08 248.09 300.99 249.27C301.9 250.45 302.57 251.85 303.01 253.47C303.45 255.09 303.67 256.84 303.67 258.74C303.67 260.63 303.45 262.37 303.01 263.97C302.57 265.57 301.9 266.95 300.99 268.12C300.08 269.29 298.93 270.2 297.53 270.85C296.14 271.5 294.47 271.82 292.53 271.82C290.59 271.82 288.92 271.5 287.51 270.85C286.1 270.2 284.95 269.29 284.04 268.12C283.13 266.95 282.46 265.57 282.02 263.97C281.58 262.37 281.36 260.63 281.36 258.74ZM297.07 258.74C297.07 253.59 295.57 251.01 292.57 251.01C289.5 251.01 287.96 253.59 287.96 258.74C287.96 261.32 288.33 263.24 289.08 264.5C289.82 265.76 290.98 266.4 292.54 266.4C295.55 266.4 297.07 263.84 297.07 258.74Z" fill="#F29100"/>
<path d="M347.29 245.43V263.67L345.19 264.88L404.25 287.03C406.48 282.61 408.54 278.08 410.4 273.44L356.14 245.44L347.29 245.43Z" fill="#96A498"/>
<path d="M147.41 245.43H123.18L76.09 275.86C77.12 279.06 78.25 282.22 79.46 285.33L155.02 268.06L147.42 263.67V245.43H147.41Z" fill="#F29100"/>
<path d="M78.84 245.43L8.62 261.48C9.99 273.36 12.48 284.82 16 295.74L90.07 247.88C90.02 247.07 90 246.24 89.96 245.43H78.84Z" fill="#96A498"/>
<path d="M103.69 166.12L37.17 130.78C33.92 142.07 31.75 153.88 30.76 166.12H103.69Z" fill="#5C685B"/>
<path d="M147.41 166.12V148.26L159.39 141.34L88.97 113.17C85.47 120.83 82.52 128.81 80.14 137.08L134.8 166.12H147.41Z" fill="#434F43"/>
</svg>
